<?xml version="1.0" encoding="utf-8"?>
<!-- Svg Vector Icons : http://www.onlinewebfonts.com/icon -->
<!DOCTYPE svg PUBLIC "-//W3C//DTD SVG 1.1//EN" "http://www.w3.org/Graphics/SVG/1.1/DTD/svg11.dtd">
<svg version="1.1" id="landscape" width="89" height="89" xmlns="http://www.w3.org/2000/svg" xmlns:xlink="http://www.w3.org/1999/xlink" x="0px" y="0px" viewBox="0 0 1000 1000" enable-background="new 0 0 1000 1000" xml:space="preserve">
<metadata> Svg Vector Icons : http://www.onlinewebfonts.com/icon </metadata>
<g><path d="M231.9,495.6c50,0,90.3-41.3,90.3-90.3c0-48.9-41.3-90.3-90.3-90.3c-48.9,0-90.3,41.3-90.3,90.3C146,455.4,186.2,495.6,231.9,495.6z M231.9,364c22.8,0,45.7,18.5,45.7,45.7c0,22.8-18.5,45.7-45.7,45.7c-22.8,0-45.7-18.5-45.7-45.7C191.6,382.5,209,364,231.9,364z M675.7,817.6L675.7,817.6L675.7,817.6L545.1,595.7l0,0c-4.4-8.7-8.7-14.1-22.8-14.1c-4.3,0-14.1,4.3-14.1,4.3l-68.5,68.5l-77.2-100.1c0-8.7-8.7-14.1-18.5-14.1c-8.7,0-14.1,4.3-18.5,8.7l0,0L150.3,813.3l0,0c-4.4,4.3-4.4,8.7-4.4,14.1c0,13.1,8.7,22.8,22.8,22.8h485.1c14.1,0,22.8-8.7,22.8-22.8C675.7,826.3,675.7,822,675.7,817.6L675.7,817.6z M209,803.5L345,599L413.5,699c4.4,8.7,8.7,13.1,18.5,13.1c4.4,0,14.1-4.4,14.1-4.4l68.5-68.5l100.1,163.2H209V803.5z M898.6,10.5H277.6c-50,0-90.3,40.2-90.3,90.3v22.8c0,14.1,8.7,22.8,22.8,22.8c14.1,0,22.8-14.1,22.8-27.2V96.5c0-22.8,18.5-45.7,45.7-45.7h621.1c22.8,0,45.7,18.5,45.7,45.7v621.1c0,22.8-18.5,45.7-45.7,45.7h-22.8c-14.1,0-22.8,8.7-22.8,22.8c0,13.1,8.7,22.8,22.8,22.8h22.8c50,0,90.3-40.2,90.3-90.3V96.5C984.6,46.4,947.6,10.5,898.6,10.5z M721.3,187.8H100.3c-50,0-90.3,40.2-90.3,90.3v621.1c0,50,40.2,90.3,90.3,90.3h621.1c50,0,90.3-41.3,90.3-90.3V273.8C807.3,223.7,771.4,187.8,721.3,187.8z M767,894.8c0,22.8-18.5,45.7-45.7,45.7H100.3c-22.8,0-45.7-18.5-45.7-45.7V273.8c0-22.8,18.5-45.7,45.7-45.7h621.1c22.8,0,45.7,18.5,45.7,45.7V894.8z"/></g>
</svg>