<svg id="package" height="54" viewBox="0 0 74 74" width="54" xmlns="http://www.w3.org/2000/svg"><path d="m71 47.57a1 1 0 0 1 -1-1v-2.91a1 1 0 0 1 2 0v2.91a1 1 0 0 1 -1 1z"/><path d="m66 72h-58a6.006 6.006 0 0 1 -6-6v-58a6.006 6.006 0 0 1 6-6h58a6.006 6.006 0 0 1 6 6v18.69a1 1 0 0 1 -2 0v-18.69a4 4 0 0 0 -4-4h-58a4 4 0 0 0 -4 4v58a4 4 0 0 0 4 4h58a4 4 0 0 0 4-4v-12.43a1 1 0 1 1 2 0v12.43a6.006 6.006 0 0 1 -6 6z"/><path d="m71 37.66a1 1 0 0 1 -1-1v-2.97a1 1 0 0 1 2 0v2.97a1 1 0 0 1 -1 1z"/><path d="m44.583 24a1 1 0 0 1 -.62-.216l-6.963-5.509-6.963 5.509a1 1 0 0 1 -1.62-.784v-20a1 1 0 0 1 1-1h15.166a1 1 0 0 1 1 1v20a1 1 0 0 1 -1 1zm-7.583-8a1 1 0 0 1 .62.216l5.963 4.718v-16.934h-13.166v16.934l5.963-4.718a1 1 0 0 1 .62-.216z"/><path d="m29.258 62.319a1 1 0 0 1 -1-1v-13.635a1 1 0 0 1 2 0v13.635a1 1 0 0 1 -1 1z"/><path d="m33 52.4a1 1 0 0 1 -.707-.293l-3.035-3.035-3.035 3.038a1 1 0 1 1 -1.414-1.41l3.742-3.742a1 1 0 0 1 1.414 0l3.742 3.742a1 1 0 0 1 -.707 1.7z"/><path d="m15.349 62.319a1 1 0 0 1 -1-1v-13.635a1 1 0 0 1 2 0v13.635a1 1 0 0 1 -1 1z"/><path d="m19.091 52.4a1 1 0 0 1 -.707-.293l-3.035-3.035-3.036 3.038a1 1 0 0 1 -1.413-1.41l3.743-3.742a1 1 0 0 1 1.414 0l3.743 3.742a1 1 0 0 1 -.707 1.707z"/></svg>